<?xml version="1.0" encoding="UTF-8" standalone="no"?>
<!-- Created with Inkscape (http://www.inkscape.org/) -->

<svg
   xmlns:dc="http://purl.org/dc/elements/1.1/"
   xmlns:cc="http://creativecommons.org/ns#"
   xmlns:rdf="http://www.w3.org/1999/02/22-rdf-syntax-ns#"
   xmlns:svg="http://www.w3.org/2000/svg"
   xmlns="http://www.w3.org/2000/svg"
   xmlns:sodipodi="http://sodipodi.sourceforge.net/DTD/sodipodi-0.dtd"
   xmlns:inkscape="http://www.inkscape.org/namespaces/inkscape"
   width="108.12653mm"
   height="22.57777mm"
   viewBox="0 0 383.12549 79.999973"
   id="svg11112"
   version="1.1"
   inkscape:version="0.91 r13725"
   sodipodi:docname="bitcoinsvg.svg">
  <defs
     id="defs11114" />
  <sodipodi:namedview
     id="base"
     pagecolor="#ffffff"
     bordercolor="#666666"
     borderopacity="1.0"
     inkscape:pageopacity="0.0"
     inkscape:pageshadow="2"
     inkscape:zoom="0.35"
     inkscape:cx="-496.29438"
     inkscape:cy="-234.28573"
     inkscape:document-units="px"
     inkscape:current-layer="layer1"
     showgrid="false"
     fit-margin-top="0"
     fit-margin-left="0"
     fit-margin-right="0"
     fit-margin-bottom="0"
     inkscape:window-width="1920"
     inkscape:window-height="1016"
     inkscape:window-x="0"
     inkscape:window-y="27"
     inkscape:window-maximized="1" />
  <metadata
     id="metadata11117">
    <rdf:RDF>
      <cc:Work
         rdf:about="">
        <dc:format>image/svg+xml</dc:format>
        <dc:type
           rdf:resource="http://purl.org/dc/dcmitype/StillImage" />
        <dc:title></dc:title>
      </cc:Work>
    </rdf:RDF>
  </metadata>
  <g
     inkscape:label="Calque 1"
     inkscape:groupmode="layer"
     id="layer1"
     transform="translate(-88.437234,-218.0765)">
    <g
       id="g148"
       transform="matrix(1.25,0,0,-1.25,167.23156,267.75266)">
      <path
         d="m 0,0 c -4.274,-17.143 -21.637,-27.576 -38.782,-23.301 -17.138,4.274 -27.571,21.637 -23.295,38.78 4.273,17.144 21.636,27.579 38.776,23.304 C -6.159,34.509 4.274,17.144 0,0"
         style="fill:#f7931a;fill-opacity:1;fill-rule:nonzero;stroke:none"
         id="path150"
         inkscape:connector-curvature="0" />
    </g>
    <g
       id="g152"
       transform="matrix(1.25,0,0,-1.25,137.39206,252.29979)">
      <path
         d="m 0,0 c -0.99,-3.966 -7.1,-1.951 -9.082,-1.457 l 1.748,7.01 C -5.352,5.059 1.031,4.137 0,0 m -1.085,-11.312 c -1.086,-4.36 -8.426,-2.003 -10.807,-1.412 l 1.928,7.729 c 2.38,-0.593 10.013,-1.769 8.879,-6.317 M 6.936,-0.063 C 7.573,4.196 4.331,6.485 -0.102,8.012 l 1.438,5.768 -3.511,0.875 -1.4,-5.616 c -0.924,0.23 -1.871,0.447 -2.814,0.662 l 1.41,5.653 -3.509,0.875 -1.439,-5.767 c -0.763,0.174 -1.513,0.346 -2.242,0.527 l 0.004,0.018 -4.842,1.209 -0.934,-3.75 c 0,0 2.605,-0.597 2.55,-0.634 1.422,-0.355 1.68,-1.296 1.637,-2.042 l -1.639,-6.571 c 0.098,-0.026 0.225,-0.061 0.366,-0.117 -0.118,0.029 -0.243,0.06 -0.371,0.091 l -2.297,-9.204 c -0.174,-0.432 -0.615,-1.08 -1.609,-0.834 0.035,-0.051 -2.552,0.637 -2.552,0.637 l -1.743,-4.019 4.569,-1.139 c 0.849,-0.213 1.683,-0.435 2.503,-0.646 l -1.453,-5.834 3.507,-0.875 1.439,5.772 c 0.959,-0.26 1.888,-0.5 2.799,-0.726 l -1.434,-5.745 3.511,-0.875 1.453,5.823 c 5.987,-1.133 10.489,-0.676 12.384,4.739 1.527,4.36 -0.076,6.875 -3.226,8.515 2.294,0.53 4.022,2.039 4.483,5.155"
         style="fill:#ffffff;fill-opacity:1;fill-rule:nonzero;stroke:none"
         id="path154"
         inkscape:connector-curvature="0" />
    </g>
    <g
       id="g156"
       transform="matrix(1.25,0,0,-1.25,192.49286,285.62191)">
      <path
         d="m 0,0 c 1.89,0 3.671,0.465 5.344,1.378 1.678,0.914 3.127,2.148 4.339,3.685 1.213,1.544 2.173,3.283 2.873,5.226 0.699,1.942 1.054,3.969 1.054,6.078 0,2.591 -0.433,4.612 -1.297,6.073 -0.862,1.455 -2.46,2.187 -4.779,2.187 -0.76,0 -1.739,-0.145 -2.953,-0.404 C 3.363,23.947 2.273,23.377 1.296,22.518 L -4.046,0.33 C -3.724,0.273 -3.438,0.219 -3.196,0.168 -2.958,0.113 -2.695,0.074 -2.433,0.047 -2.156,0.016 -1.839,0 -1.457,0 L 0,0 Z m 10.527,34.671 c 2.595,0 4.837,-0.464 6.721,-1.378 1.892,-0.922 3.454,-2.164 4.708,-3.726 1.236,-1.57 2.156,-3.405 2.749,-5.508 0.59,-2.109 0.886,-4.376 0.886,-6.804 0,-3.727 -0.683,-7.25 -2.061,-10.569 C 22.151,3.36 20.28,0.477 17.9,-1.984 15.522,-4.44 12.714,-6.377 9.476,-7.809 6.243,-9.24 2.728,-9.957 -1.046,-9.957 c -0.489,0 -1.346,0.014 -2.558,0.039 -1.213,0.025 -2.605,0.15 -4.166,0.361 -1.569,0.219 -3.23,0.543 -4.982,0.977 -1.752,0.426 -3.416,1.023 -4.984,1.781 L -3.724,52.077 8.826,54.022 3.81,33.129 c 1.074,0.484 2.155,0.859 3.236,1.132 1.081,0.27 2.241,0.41 3.481,0.41"
         style="fill:#4d4d4d;fill-opacity:1;fill-rule:nonzero;stroke:none"
         id="path158"
         inkscape:connector-curvature="0" />
    </g>
    <g
       id="g160"
       transform="matrix(1.25,0,0,-1.25,248.04576,236.91829)">
      <path
         d="m 0,0 c -1.673,0 -3.19,0.498 -4.536,1.496 -1.357,0.992 -2.029,2.519 -2.029,4.577 0,1.133 0.231,2.195 0.686,3.197 0.462,1 1.068,1.86 1.826,2.593 0.757,0.726 1.634,1.306 2.63,1.743 1.002,0.43 2.068,0.644 3.204,0.644 1.672,0 3.181,-0.498 4.532,-1.495 C 7.659,11.751 8.336,10.225 8.336,8.178 8.336,7.042 8.107,5.976 7.647,4.976 7.19,3.976 6.584,3.115 5.827,2.383 5.075,1.656 4.19,1.078 3.197,0.645 2.195,0.207 1.133,0 0,0 m -5.833,-47.787 -11.987,0 10.123,42.597 12.069,0 -10.205,-42.597 z"
         style="fill:#4d4d4d;fill-opacity:1;fill-rule:nonzero;stroke:none"
         id="path162"
         inkscape:connector-curvature="0" />
    </g>
    <g
       id="g164"
       transform="matrix(1.25,0,0,-1.25,266.64006,230.14217)">
      <path
         d="m 0,0 12.555,1.945 -3.083,-12.556 13.446,0 -2.427,-9.878 -13.366,0 L 3.566,-35.39 C 3.238,-36.632 3.052,-37.792 3,-38.87 c -0.059,-1.083 0.078,-2.013 0.402,-2.796 0.322,-0.785 0.901,-1.39 1.741,-1.818 0.836,-0.435 2.033,-0.654 3.603,-0.654 1.293,0 2.552,0.123 3.77,0.367 1.211,0.241 2.438,0.574 3.68,1.012 l 0.893,-9.236 c -1.62,-0.594 -3.374,-1.106 -5.263,-1.535 -1.893,-0.436 -4.134,-0.647 -6.724,-0.647 -3.724,0 -6.611,0.553 -8.668,1.655 -2.054,1.108 -3.506,2.624 -4.375,4.542 -0.858,1.911 -1.241,4.114 -1.133,6.595 0.111,2.488 0.486,5.103 1.133,7.858 L 0,0 Z"
         style="fill:#4d4d4d;fill-opacity:1;fill-rule:nonzero;stroke:none"
         id="path166"
         inkscape:connector-curvature="0" />
    </g>
    <g
       id="g168"
       transform="matrix(1.25,0,0,-1.25,294.62656,275.39479)">
      <path
         d="m 0,0 c 0,3.669 0.594,7.129 1.781,10.368 1.185,3.242 2.892,6.077 5.108,8.51 2.207,2.421 4.895,4.339 8.06,5.747 3.151,1.4 6.677,2.106 10.565,2.106 2.432,0 4.606,-0.23 6.517,-0.69 1.92,-0.465 3.657,-1.066 5.228,-1.82 L 33.125,14.82 c -1.08,0.438 -2.201,0.825 -3.36,1.174 -1.161,0.358 -2.577,0.529 -4.251,0.529 -4.001,0 -7.164,-1.378 -9.518,-4.127 -2.345,-2.752 -3.526,-6.454 -3.526,-11.1 0,-2.753 0.593,-4.979 1.786,-6.682 1.185,-1.702 3.377,-2.55 6.557,-2.55 1.571,0 3.085,0.165 4.537,0.485 1.462,0.324 2.753,0.732 3.889,1.214 l 0.895,-9.636 c -1.516,-0.588 -3.188,-1.119 -5.023,-1.584 -1.838,-0.449 -4.026,-0.682 -6.563,-0.682 -3.349,0 -6.184,0.491 -8.503,1.455 -2.32,0.981 -4.237,2.281 -5.747,3.929 C 2.78,-11.103 1.689,-9.174 1.016,-6.959 0.344,-4.749 0,-2.425 0,0"
         style="fill:#4d4d4d;fill-opacity:1;fill-rule:nonzero;stroke:none"
         id="path170"
         inkscape:connector-curvature="0" />
    </g>
    <g
       id="g172"
       transform="matrix(1.25,0,0,-1.25,368.67446,254.74054)">
      <path
         d="m 0,0 c -1.777,0 -3.348,-0.516 -4.693,-1.535 -1.35,-1.031 -2.485,-2.327 -3.399,-3.89 -0.924,-1.57 -1.609,-3.282 -2.072,-5.143 -0.459,-1.865 -0.684,-3.628 -0.684,-5.303 0,-2.703 0.436,-4.808 1.293,-6.323 0.869,-1.508 2.43,-2.265 4.7,-2.265 1.783,0 3.345,0.512 4.699,1.542 1.342,1.023 2.476,2.32 3.398,3.886 0.918,1.562 1.61,3.279 2.072,5.143 0.454,1.86 0.684,3.633 0.684,5.304 0,2.696 -0.434,4.806 -1.299,6.319 C 3.836,-0.758 2.268,0 0,0 m -5.99,-34.662 c -2.862,0 -5.346,0.435 -7.454,1.299 -2.102,0.863 -3.843,2.073 -5.22,3.643 -1.379,1.563 -2.411,3.413 -3.118,5.546 -0.707,2.132 -1.047,4.493 -1.047,7.08 0,3.245 0.521,6.489 1.574,9.724 1.048,3.242 2.603,6.155 4.661,8.745 2.042,2.593 4.561,4.713 7.528,6.365 2.962,1.642 6.371,2.468 10.199,2.468 2.808,0 5.281,-0.437 7.418,-1.3 2.127,-0.861 3.879,-2.082 5.263,-3.644 1.371,-1.57 2.412,-3.413 3.112,-5.549 0.705,-2.129 1.053,-4.495 1.053,-7.085 0,-3.235 -0.514,-6.479 -1.535,-9.724 -1.021,-3.229 -2.536,-6.149 -4.536,-8.744 -1.996,-2.589 -4.492,-4.708 -7.49,-6.353 -2.994,-1.645 -6.467,-2.471 -10.408,-2.471"
         style="fill:#4d4d4d;fill-opacity:1;fill-rule:nonzero;stroke:none"
         id="path174"
         inkscape:connector-curvature="0" />
    </g>
    <g
       id="g176"
       transform="matrix(1.25,0,0,-1.25,414.75846,236.91829)">
      <path
         d="m 0,0 c -1.672,0 -3.188,0.498 -4.532,1.496 -1.35,0.992 -2.029,2.519 -2.029,4.577 0,1.133 0.234,2.195 0.691,3.197 0.457,1 1.066,1.86 1.824,2.593 0.753,0.726 1.638,1.306 2.632,1.743 0.996,0.43 2.062,0.644 3.194,0.644 1.676,0 3.191,-0.498 4.538,-1.495 C 7.667,11.751 8.349,10.225 8.349,8.178 8.349,7.042 8.106,5.976 7.653,4.976 7.2,3.976 6.592,3.115 5.836,2.383 5.076,1.656 4.202,1.078 3.206,0.645 2.202,0.207 1.139,0 0,0 m -5.823,-47.787 -11.997,0 10.123,42.597 12.075,0 -10.201,-42.597 z"
         style="fill:#4d4d4d;fill-opacity:1;fill-rule:nonzero;stroke:none"
         id="path178"
         inkscape:connector-curvature="0" />
    </g>
    <g
       id="g180"
       transform="matrix(1.25,0,0,-1.25,431.02306,245.83191)">
      <path
         d="m 0,0 c 0.91,0.266 1.926,0.586 3.031,0.934 1.11,0.347 2.348,0.671 3.733,0.964 1.369,0.301 2.914,0.545 4.613,0.734 1.699,0.194 3.635,0.287 5.786,0.287 6.322,0 10.679,-1.841 13.086,-5.512 2.404,-3.671 2.82,-8.695 1.259,-15.063 l -5.513,-23 -12.067,0 5.344,22.516 c 0.326,1.406 0.582,2.765 0.771,4.093 0.192,1.316 0.18,2.476 -0.043,3.48 -0.212,0.991 -0.714,1.803 -1.494,2.432 -0.791,0.619 -1.986,0.93 -3.607,0.93 -1.563,0 -3.153,-0.168 -4.776,-0.492 l -7.857,-32.959 -12.072,0 L 0,0 Z"
         style="fill:#4d4d4d;fill-opacity:1;fill-rule:nonzero;stroke:none"
         id="path182"
         inkscape:connector-curvature="0" />
    </g>
  </g>
</svg>
