<?xml version="1.0" encoding="UTF-8" standalone="no"?>
<!-- Created with Inkscape (http://www.inkscape.org/) -->

<svg
   xmlns:dc="http://purl.org/dc/elements/1.1/"
   xmlns:cc="http://creativecommons.org/ns#"
   xmlns:rdf="http://www.w3.org/1999/02/22-rdf-syntax-ns#"
   xmlns:svg="http://www.w3.org/2000/svg"
   xmlns="http://www.w3.org/2000/svg"
   xmlns:sodipodi="http://sodipodi.sourceforge.net/DTD/sodipodi-0.dtd"
   xmlns:inkscape="http://www.inkscape.org/namespaces/inkscape"
   width="32.034031"
   height="32.722031"
   viewBox="0 0 8.475671 8.6577041"
   version="1.1"
   id="svg5114"
   inkscape:version="0.92+devel unknown"
   sodipodi:docname="malt_and_hop.svg">
  <defs
     id="defs5108" />
  <sodipodi:namedview
     id="base"
     pagecolor="#ffffff"
     bordercolor="#666666"
     borderopacity="1.0"
     inkscape:pageopacity="0.0"
     inkscape:pageshadow="2"
     inkscape:zoom="16"
     inkscape:cx="7.954393"
     inkscape:cy="17.508227"
     inkscape:document-units="mm"
     inkscape:current-layer="layer1"
     inkscape:document-rotation="0"
     showgrid="false"
     inkscape:window-width="1920"
     inkscape:window-height="1016"
     inkscape:window-x="0"
     inkscape:window-y="27"
     inkscape:window-maximized="1"
     fit-margin-top="3.395"
     fit-margin-left="3.395"
     fit-margin-right="3.395"
     fit-margin-bottom="3.395"
     inkscape:measure-start="16.6044,-2.15293"
     inkscape:measure-end="21.353,-6.90152"
     units="px"
     inkscape:snap-page="false"
     inkscape:lockguides="false"
     showguides="true"
     inkscape:guide-bbox="true">
    <sodipodi:guide
       position="4.0401875,6.0493666"
       orientation="-0.70710678,0.70710678"
       id="guide7238"
       inkscape:locked="false" />
    <sodipodi:guide
       position="4.3533467,3.8407158"
       orientation="-0.70710678,0.70710678"
       id="guide7246"
       inkscape:locked="false" />
    <sodipodi:guide
       position="1.8054828,3.8146619"
       orientation="0.70710678,0.70710678"
       id="guide7378"
       inkscape:locked="false" />
    <sodipodi:guide
       position="2.3100597,7.7815933"
       orientation="-0.70710678,0.70710678"
       id="guide7380"
       inkscape:locked="false" />
    <sodipodi:guide
       position="0.93053131,4.2832129"
       orientation="0.70710678,0.70710678"
       id="guide7473"
       inkscape:locked="false" />
    <sodipodi:guide
       position="9.0896102,3.8272384"
       orientation="-0.70710678,0.70710678"
       id="guide7477"
       inkscape:locked="false" />
  </sodipodi:namedview>
  <metadata
     id="metadata5111">
    <rdf:RDF>
      <cc:Work
         rdf:about="">
        <dc:format>image/svg+xml</dc:format>
        <dc:type
           rdf:resource="http://purl.org/dc/dcmitype/StillImage" />
        <dc:title />
      </cc:Work>
    </rdf:RDF>
  </metadata>
  <g
     inkscape:label="Calque 1"
     inkscape:groupmode="layer"
     id="layer1"
     transform="translate(-16.711829,-52.562839)">
    <path
       style="clip-rule:evenodd;fill:#deb407;fill-opacity:1;fill-rule:evenodd;stroke:#000000;stroke-width:0.01217083;stroke-linecap:round;stroke-linejoin:round;stroke-miterlimit:1.5;stroke-dasharray:none;stroke-opacity:1"
       d="m 17.422559,56.084469 0.387003,-0.395629 0.387003,-0.39563 -0.03864,-0.06132 c -0.08633,-0.137039 -0.134686,-0.335422 -0.120114,-0.492737 0.01544,-0.166699 0.117171,-0.394855 0.248827,-0.558061 l 0.04916,-0.0609 0.04926,0.06128 c 0.293876,0.365831 0.334195,0.760665 0.112171,1.098395 -0.05528,0.08408 -0.106325,0.138512 -0.488108,0.520507 l -0.426388,0.426594 c -0.09466,0.09466 -0.247943,-0.05465 -0.160124,-0.142474 z m 1.172323,-0.558441 c 0.0039,-0.0039 0.03401,-0.04547 0.06693,-0.09226 0.0726,-0.103343 0.116248,-0.190975 0.155865,-0.31295 l 0.02993,-0.09214 0.09166,-5.73e-4 c 0.165071,-10e-4 0.342721,0.07497 0.512473,0.219242 l 0.08006,0.06804 -0.02501,0.02493 c -0.05367,0.05351 -0.21482,0.160614 -0.30441,0.202291 -0.157037,0.07306 -0.31096,0.09125 -0.45469,0.05374 -0.07324,-0.01912 -0.162809,-0.06034 -0.152818,-0.07033 z m 0.322447,-0.970913 c -0.251774,-0.330844 -0.255207,-0.628719 -0.01123,-0.973976 0.03497,-0.0495 0.07533,-0.101734 0.08969,-0.116089 l 0.0261,-0.0261 0.07073,0.08148 c 0.08096,0.09326 0.17131,0.250067 0.199805,0.346554 0.03106,0.105211 0.02454,0.248157 -0.01695,0.3711 -0.03826,0.11335 -0.125671,0.271099 -0.206548,0.372711 l -0.04789,0.06019 -0.04064,-0.04319 c -0.02234,-0.02376 -0.05069,-0.05649 -0.06305,-0.07266 z m 0.365861,0.137407 c 0.04384,-0.06133 0.104514,-0.161309 0.134834,-0.222176 l 0.05513,-0.110667 0.07698,-0.0125 c 0.183935,-0.02987 0.390011,0.04631 0.586328,0.216748 l 0.07856,0.06824 -0.02609,0.02609 c -0.03838,0.03838 -0.197361,0.148783 -0.263094,0.182696 -0.184962,0.09543 -0.371926,0.113031 -0.544729,0.05129 -0.05827,-0.02082 -0.122069,-0.04918 -0.141791,-0.06302 l -0.03589,-0.02514 z m 0.267969,-0.875474 c -0.183526,-0.23875 -0.233551,-0.475208 -0.149103,-0.704804 0.02128,-0.05787 0.05954,-0.138849 0.08501,-0.17995 0.05163,-0.08331 0.155696,-0.219915 0.167521,-0.219918 0.01595,0 0.108713,0.110693 0.167818,0.200246 0.07934,0.12022 0.120231,0.237583 0.124634,0.357648 0.0072,0.196206 -0.05507,0.345643 -0.268546,0.644572 -0.01879,0.02628 -0.02145,0.02598 -0.05092,-0.0056 -0.01712,-0.01831 -0.05149,-0.05983 -0.07641,-0.09224 z m 0.29612,0.242055 c 0.0088,-0.01342 0.03311,-0.04612 0.05402,-0.07275 0.02095,-0.02661 0.06826,-0.0982 0.105185,-0.159053 l 0.06712,-0.110652 c 0.109438,-0.05448 0.334305,-0.06608 0.465295,-0.01533 0.08848,0.03538 0.189488,0.09891 0.280447,0.176417 l 0.08326,0.07096 -0.06926,0.05781 c -0.173308,0.1445 -0.387893,0.237687 -0.551396,0.239442 -0.134117,0.0014 -0.293491,-0.05014 -0.408166,-0.132104 -0.03901,-0.02784 -0.04113,-0.03236 -0.0265,-0.0547 z m 0.327469,-0.676385 c 0.04244,-0.279292 0.125779,-0.458908 0.271706,-0.585614 0.115519,-0.100303 0.261052,-0.152794 0.479757,-0.173055 l 0.104815,-0.0097 -0.0041,0.07077 c -0.0067,0.115478 -0.04565,0.27843 -0.09105,0.381313 -0.106303,0.240921 -0.312418,0.375789 -0.630037,0.412257 -0.07038,0.0081 -0.13186,0.0108 -0.136611,0.0061 -0.0047,-0.0047 -0.0023,-0.05066 0.0055,-0.102014 z"
       id="path4519"
       inkscape:connector-curvature="0"
       sodipodi:nodetypes="ccccsscsssccssscssccscsssscccssccsssssscsscscscsccsscccccscsccscscssscsssssss" />
    <g
       transform="matrix(0.04313459,0.04313459,-0.04313459,0.04313459,9.0785108,39.734768)"
       id="g5858"
       style="fill:#5a8327;fill-opacity:1">
      <path
         inkscape:connector-curvature="0"
         d="m 355.69058,27.044931 c 0,0 5.36556,0.891785 4.40652,-5.726296 -0.95904,-6.618954 -2.6308,-12.1426102 -2.6308,-12.1426102 l 2.12247,-0.4681656 c 0,0 3.50251,11.4298798 3.4597,11.7600418 -0.0446,0.332783 2.44826,7.308102 2.44826,7.308102 l -5.66603,2.535606 z"
         id="path5812"
         style="fill:#5a8327;fill-opacity:1;stroke-width:0.87344342" />
      <g
         stroke-linejoin="round"
         stroke="#B4CC95"
         stroke-linecap="round"
         stroke-width="1.1807"
         id="g5854"
         style="fill:#5a8327;fill-opacity:1;stroke:#000000;stroke-width:0.68361324;stroke-miterlimit:4;stroke-dasharray:none;stroke-opacity:0.97109195">
        <path
           inkscape:connector-curvature="0"
           d="m 345.23546,31.941454 c 0,0 -1.76261,0.674299 -3.33044,2.423806 -1.56956,1.746014 -2.6308,2.799386 -2.75221,3.65012 -0.12229,0.851608 -2.05609,5.149824 -2.05609,5.149824 0,0 -0.2271,1.440307 0.003,1.981843 0.2271,0.545029 1.20972,1.666529 1.20972,1.666529 l 6.25037,-3.61955 0.66381,-11.252572 z"
           id="path5814"
           style="fill:#5a8327;fill-opacity:1;stroke:#000000;stroke-width:0.15576456;stroke-miterlimit:4;stroke-dasharray:none;stroke-opacity:0.97109195" />
        <path
           inkscape:connector-curvature="0"
           d="m 356.96581,72.619463 c 0,0 -0.8848,3.378478 0.1249,5.09567 1.01232,1.717189 2.69894,4.206503 3.54881,4.330532 0.84985,0.120534 3.30685,-1.040271 3.91127,-3.182828 0.59918,-2.137316 -2.97058,-4.091209 -2.97058,-4.091209 l -4.61178,-2.152165 z"
           id="path5816"
           style="fill:#5a8327;fill-opacity:1;stroke:#000000;stroke-width:0.15576456;stroke-miterlimit:4;stroke-dasharray:none;stroke-opacity:0.97109195" />
        <path
           inkscape:connector-curvature="0"
           d="m 376.22523,66.023218 c 0,0 1.60104,3.803846 0.0218,5.682623 -1.57918,1.880523 -3.59159,4.38818 -4.24755,4.348875 -0.65858,-0.04628 -2.32598,-0.81667 -2.48495,-1.420218 -0.15809,-0.604425 0.95992,-4.561996 1.16081,-5.604888 0.20088,-1.044637 0.17119,-3.62479 0.17119,-3.62479 l 5.37168,0.618398 z"
           id="path5818"
           style="fill:#5a8327;fill-opacity:1;stroke:#000000;stroke-width:0.15576456;stroke-miterlimit:4;stroke-dasharray:none;stroke-opacity:0.97109195" />
        <path
           inkscape:connector-curvature="0"
           d="m 356.24959,66.425875 c 0,0 0.12315,4.106058 1.1346,5.826742 1.01145,1.716316 4.20039,7.477549 6.33072,7.220757 2.1312,-0.260286 4.45368,-2.417692 4.88429,-2.918175 0.42798,-0.500483 0.0699,-1.049879 1.31803,-3.018621 1.25426,-1.964373 0.93109,-8.132631 0.93109,-8.132631 l -6.06956,-2.114608 -7.09586,0.392178 -1.44118,2.744358 z"
           id="path5820"
           style="fill:#5a8327;fill-opacity:1;stroke:#000000;stroke-width:0.15576456;stroke-miterlimit:4;stroke-dasharray:none;stroke-opacity:0.97109195" />
        <path
           inkscape:connector-curvature="0"
           d="m 343.47984,65.58999 c 0,0 -0.32054,3.877216 0.26116,6.093142 0.58258,2.221167 3.19768,5.629343 3.72349,5.665153 0.52668,0.03319 1.80629,-2.326852 1.82987,-3.711261 0.0253,-1.387028 -3.023,-7.270543 -3.023,-7.270543 l -2.78628,-0.776491 z"
           id="path5822"
           style="fill:#5a8327;fill-opacity:1;stroke:#000000;stroke-width:0.15576456;stroke-miterlimit:4;stroke-dasharray:none;stroke-opacity:0.97109195" />
        <path
           inkscape:connector-curvature="0"
           d="m 345.70713,67.981478 c 0,0 2.27968,8.539657 4.85196,10.62544 2.57317,2.084909 2.94177,2.507656 2.94177,2.507656 l 3.68419,-0.751161 c 0,0 1.25164,-1.965248 1.8482,-2.98543 0.59394,-1.016689 -1.85433,-12.011595 -1.85433,-12.011595 l -0.62363,-1.560842 -10.86563,4.175932 z"
           id="path5824"
           style="fill:#5a8327;fill-opacity:1;stroke:#000000;stroke-width:0.15576456;stroke-miterlimit:4;stroke-dasharray:none;stroke-opacity:0.97109195" />
        <path
           inkscape:connector-curvature="0"
           d="m 339.82886,57.880104 c 0,0 -1.0429,10.776546 8.47501,10.801002 5.22057,0.0095 8.06538,-4.096449 8.06538,-4.096449 l -7.09498,-8.659319 -9.44193,1.954766 z"
           id="path5826"
           style="fill:#5a8327;fill-opacity:1;stroke:#000000;stroke-width:0.15576456;stroke-miterlimit:4;stroke-dasharray:none;stroke-opacity:0.97109195" />
        <path
           inkscape:connector-curvature="0"
           d="m 368.98439,55.634482 c 0,0 2.06482,4.76376 2.01503,6.541218 -0.0515,1.780078 -0.66993,4.186415 -2.44302,4.995223 -1.77134,0.807936 -5.20135,-3.253577 -6.44165,-5.511429 -1.24029,-2.263092 6.874,-6.025012 6.874,-6.025012 z"
           id="path5828"
           style="fill:#5a8327;fill-opacity:1;stroke:#000000;stroke-width:0.15576456;stroke-miterlimit:4;stroke-dasharray:none;stroke-opacity:0.97109195" />
        <path
           inkscape:connector-curvature="0"
           d="m 344.70267,40.957137 c 0,0 -7.47406,5.190876 -8.06102,6.076547 -0.58869,0.888292 -2.94437,4.564615 -0.72409,7.948335 2.22379,3.381974 5.72368,3.416911 5.72368,3.416911 0,0 3.87635,0.319681 5.12974,-0.654208 1.25426,-0.975637 2.58452,-3.136536 2.58452,-3.136536 l -4.64673,-13.651049 z"
           id="path5830"
           style="fill:#5a8327;fill-opacity:1;stroke:#000000;stroke-width:0.15576456;stroke-miterlimit:4;stroke-dasharray:none;stroke-opacity:0.97109195" />
        <path
           inkscape:connector-curvature="0"
           d="m 367.945,52.328499 c 0,0 2.28143,11.516351 -7.96057,12.558369 -10.24548,1.043765 -11.35302,-4.182046 -12.73044,-10.414939 -1.37217,-6.235514 0.86296,-7.080133 0.86296,-7.080133 l 10.52849,-7.368369 7.85488,7.122057 1.44118,5.183015 z"
           id="path5832"
           style="fill:#5a8327;fill-opacity:1;stroke:#000000;stroke-width:0.15576456;stroke-miterlimit:4;stroke-dasharray:none;stroke-opacity:0.97109195" />
        <path
           inkscape:connector-curvature="0"
           d="m 376.74057,33.08916 c 0,0 4.35586,4.115665 4.72358,6.519381 0.37209,2.402844 0.34676,4.780356 -2.34171,6.518509 -2.69369,1.7399 -8.83488,-10.35904 -8.83488,-10.35904 l 6.45476,-2.67885 z"
           id="path5834"
           style="fill:#5a8327;fill-opacity:1;stroke:#000000;stroke-width:0.15576456;stroke-miterlimit:4;stroke-dasharray:none;stroke-opacity:0.97109195" />
        <path
           inkscape:connector-curvature="0"
           d="m 373.60491,36.578566 c 0,0 6.22415,6.819846 6.50453,9.54761 0.28737,2.726891 -3.02561,6.869633 -3.02561,6.869633 l -7.81383,-7.782381 4.33229,-8.634862 z"
           id="path5836"
           style="fill:#5a8327;fill-opacity:1;stroke:#000000;stroke-width:0.15576456;stroke-miterlimit:4;stroke-dasharray:none;stroke-opacity:0.97109195" />
        <path
           inkscape:connector-curvature="0"
           d="m 373.29047,45.412573 c 0,0 6.18835,5.362942 6.83906,7.520349 0.65334,2.158278 1.15556,3.576749 -0.0262,6.473088 -1.18264,2.896338 -2.12683,4.220479 -3.11645,5.212711 -0.99224,0.992232 -1.37392,1.825496 -2.37577,1.95826 -1.00009,0.131017 -3.73658,-0.442835 -4.99348,-2.442147 -1.25599,-1.998439 -2.81772,-11.415906 -2.81772,-11.415906 l 6.49842,-7.306355 z"
           id="path5838"
           style="fill:#5a8327;fill-opacity:1;stroke:#000000;stroke-width:0.15576456;stroke-miterlimit:4;stroke-dasharray:none;stroke-opacity:0.97109195" />
        <path
           inkscape:connector-curvature="0"
           d="m 372.13752,35.755783 c 0,0 2.52863,3.735717 2.7103,8.041793 0.1808,4.30695 -0.8813,6.351681 -1.97399,7.92912 -1.09529,1.580059 -4.66418,4.583831 -4.66418,4.583831 0,0 -7.22339,-5.695724 -8.70211,-11.339916 -1.47875,-5.647685 -1.91111,-8.120404 -1.91111,-8.120404 l 5.90885,-4.437966 8.62961,3.343542 z"
           id="path5840"
           style="fill:#5a8327;fill-opacity:1;stroke:#000000;stroke-width:0.15576456;stroke-miterlimit:4;stroke-dasharray:none;stroke-opacity:0.97109195" />
        <path
           inkscape:connector-curvature="0"
           d="m 348.51088,28.322778 -4.69039,3.986396 -0.52233,1.94778 -0.27863,2.22728 c 0,0 -0.48214,0.297845 -0.72757,1.009701 -0.24456,0.710983 -0.82366,1.464764 -0.63586,2.66837 0.18255,1.200111 0.0437,2.31375 0.22097,3.645753 0.17557,1.335494 0.39567,3.993382 0.39567,3.993382 l -0.41925,0.368594 c 0,0 -0.33889,2.15828 -0.0943,2.439528 0.24543,0.278628 1.12674,1.98883 1.92418,1.909347 0.79834,-0.07948 2.77144,0.04979 2.77144,0.04979 0,0 3.21078,0.409645 8.07323,-4.226593 4.86421,-4.635365 4.9996,-9.713565 4.9996,-9.713565 l 0.10299,-3.561028 -11.10147,-6.744731 z"
           id="path5842"
           style="fill:#5a8327;fill-opacity:1;stroke:#000000;stroke-width:0.15576456;stroke-miterlimit:4;stroke-dasharray:none;stroke-opacity:0.97109195" />
        <path
           inkscape:connector-curvature="0"
           d="m 364.32894,26.982917 c 0,0 5.95862,-5.224066 10.36778,-0.902268 4.40652,4.319178 3.67282,8.434844 3.67282,8.434844 l -5.57257,5.382158 c 0,0 -5.27472,-0.216613 -7.51248,-2.346942 -2.24475,-2.126836 -4.82141,-6.195335 -0.9608,-10.567792 z"
           id="path5844"
           style="fill:#5a8327;fill-opacity:1;stroke:#000000;stroke-width:0.15576456;stroke-miterlimit:4;stroke-dasharray:none;stroke-opacity:0.97109195" />
        <path
           inkscape:connector-curvature="0"
           d="m 359.63855,26.872862 c 0,0 -1.44205,-3.19855 -2.52163,-3.864987 -1.07871,-0.664691 -3.22826,-1.13635 -5.68612,-0.967776 -2.45613,0.170323 -4.49563,1.090057 -5.34634,1.960007 -0.84987,0.870824 -1.91111,1.92507 -1.91111,1.92507 0,0 1.89625,3.293756 2.51989,3.863241 0.62364,0.570358 7.7885,0.117041 7.7885,0.117041 l 5.16204,-3.032596 z"
           id="path5846"
           style="fill:#5a8327;fill-opacity:1;stroke:#000000;stroke-width:0.15576456;stroke-miterlimit:4;stroke-dasharray:none;stroke-opacity:0.97109195" />
        <g
           id="g5852"
           style="fill:#5a8327;fill-opacity:1;stroke:#000000;stroke-width:0.68361324;stroke-miterlimit:4;stroke-dasharray:none;stroke-opacity:0.97109195"
           transform="matrix(0.87344344,0,0,0.87344344,55.51426,8.7078592)">
          <path
             inkscape:connector-curvature="0"
             d="m 347.98,19.424 c 0,0 -5.364,-1.261 -7.26,-0.024 -1.896,1.236 -5.619,4.928 -5.619,4.928 l 0.216,4.779 c 0,0 3.328,3.472 5.265,3.898 1.938,0.434 3.246,2.41 4.921,1.083 1.676,-1.328 3.753,-1.872 4.146,-2.074 0.396,-0.199 1.716,-0.794 1.716,-0.794 l 3.294,-2.887 c 0,0 0.74,-0.931 0.648,-1.844 -0.088,-0.917 0,-2.272 -0.707,-3.073 -0.702,-0.804 -1.346,-1.375 -2.505,-2.206 -1.152,-0.833 -2.366,-0.762 -2.366,-0.762 l -1.75,-1.024 z"
             id="path5848"
             style="fill:#5a8327;fill-opacity:1;stroke:#000000;stroke-width:0.17833389;stroke-miterlimit:4;stroke-dasharray:none;stroke-opacity:0.97109195" />
          <line
             x1="351.98001"
             y2="19.714001"
             x2="348.94"
             y1="23.014"
             id="line5850"
             style="fill:#5a8327;fill-opacity:1;stroke:#000000;stroke-width:0.17833389;stroke-miterlimit:4;stroke-dasharray:none;stroke-opacity:0.97109195" />
        </g>
      </g>
      <path
         inkscape:connector-curvature="0"
         stroke-linejoin="round"
         d="m 359.96172,16.996837 c 0,0 -1.35646,2.709421 -3.43961,4.021333 -2.08318,1.31104 -4.29124,2.089278 -4.29124,2.089278 0,0 6.42331,0.120535 6.9989,-0.731073 0.57648,-0.851607 1.79667,-2.240382 1.79667,-2.240382"
         stroke="#B4CC95"
         stroke-linecap="round"
         stroke-width="1.1807"
         id="path5856"
         style="fill:#5a8327;fill-opacity:1;stroke:#000000;stroke-width:0.15576456;stroke-miterlimit:4;stroke-dasharray:none;stroke-opacity:0.97109195" />
    </g>
  </g>
</svg>
